<svg xmlns="http://www.w3.org/2000/svg" viewBox="0 0 600 600" width="600" height="600" stroke="black" stroke-width="1" fill="none">
<rect x="0" y="0" width="600" height="600" stroke="black" stroke-width="15" fill="none" />
<rect x="220" y="520" width="260" height="60" fill="green" />
<rect x="20" y="20" width="260" height="60" fill="red" />
<rect x="320" y="20" width="160" height="60" fill="red" />
<rect x="220" y="120" width="60" height="260" fill="red" />
<rect x="520" y="120" width="60" height="160" fill="red" />
<rect x="420" y="220" width="60" height="160" fill="red" />
<rect x="20" y="220" width="160" height="60" fill="red" />
<rect x="320" y="220" width="60" height="160" fill="red" />
<rect x="320" y="120" width="160" height="60" fill="red" />
<rect x="20" y="420" width="160" height="60" fill="red" />
<rect x="20" y="320" width="160" height="60" fill="red" />
<rect x="20" y="120" width="160" height="60" fill="red" />
<rect x="320" y="420" width="160" height="60" fill="red" />
<rect x="20" y="520" width="160" height="60" fill="red" />
</svg>